PathFileType	4	(X/Y/Z)	D:\Share\Shared_Data\Ergonomics\Sit To Stand Pertubation\S0\Perturbed STS.trc
DataRate	CameraRate	NumFrames	NumMarkers	Units	OrigDataRate	OrigDataStartFrame	OrigNumFrames	
100	100	8	18	m	100	12996	241
Frame#	Time	R_Heel			R_ASIS			R_Pelvis			V_Sacral			L_Pelvis			L_ASIS			Clavical			R_Acromium			L_Acromium			Sternum			Torso			R_Thigh_Med			R_Thigh_Lat			R_Thigh			R_Shank_Med			R_Shank_Lat			R_Shank			R_Toe			
		X1	Y1	Z1	X2	Y2	Z2	X3	Y3	Z3	X4	Y4	Z4	X5	Y5	Z5	X6	Y6	Z6	X7	Y7	Z7	X8	Y8	Z8	X9	Y9	Z9	X10	Y10	Z10	X11	Y11	Z11	X12	Y12	Z12	X13	Y13	Z13	X14	Y14	Z14	X15	Y15	Z15	X16	Y16	Z16	X17	Y17	Z17	X18	Y18	Z18	

12996	86.3	0.17183633	0.040325203	0.11536288	0.24605069	0.93014441	0.13910506	0.13446965	0.9808725	0.18798882	0.0015124242	1.0113994	-0.035658134	0.13328699	0.968534	-0.22273021	0.23983327	0.91365344	-0.17369322	0.42996753	1.3011217	-0.036287045	0.38655444	1.3953044	0.096486023	0.37271521	1.4015847	-0.18275729	0.41974551	1.2060575	-0.055027782	0.41170422	1.2597189	-0.15852036	0.33942303	0.4896557	0.033126671	0.33490381	0.50771112	0.16517288	0.36260495	0.65961414	0.099765778	0.27121552	0.099498039	0.067973534	0.21643674	0.085688393	0.15957286	0.28048132	0.30924832	0.17887059	0.39645282	0.052215195	0.10653569
12997	86.31	0.17183643	0.040331547	0.11537434	0.24864005	0.93310205	0.13918103	0.13683275	0.98300549	0.18793098	0.0040314527	1.0131847	-0.035763023	0.13602602	0.97071283	-0.22273723	0.24285809	0.91654077	-0.17361322	0.4295376	1.3062133	-0.036151772	0.38509384	1.3998123	0.096804703	0.37155505	1.4061199	-0.18270836	0.42038678	1.2110004	-0.054689125	0.41164856	1.2645476	-0.15845309	0.33856845	0.48988321	0.033163616	0.33382532	0.50802667	0.16511728	0.36308578	0.6595827	0.099891075	0.27120953	0.099546906	0.06813311	0.21628351	0.085673203	0.159625	0.27956741	0.30949188	0.17887262	0.39647989	0.052148712	0.10682144
12998	86.32	0.1718428	0.04034391	0.11538876	0.25122556	0.93597797	0.13927811	0.13916718	0.98508044	0.18786844	0.0065440993	1.0148466	-0.035887104	0.13877769	0.9727749	-0.22274265	0.24588586	0.91933545	-0.1735275	0.42908875	1.3111932	-0.036005379	0.3836008	1.4041989	0.097125992	0.37038358	1.410522	-0.18264926	0.42098993	1.2158413	-0.054351288	0.41157959	1.2692585	-0.15834908	0.33773874	0.49009476	0.033185562	0.33277591	0.50833435	0.16503914	0.36358286	0.65952789	0.099992134	0.27121616	0.099588547	0.06829644	0.21613292	0.085659103	0.15967474	0.27866	0.30973749	0.17886055	0.39652835	0.052056969	0.10712604
12999	86.33	0.1718535	0.040359638	0.11540932	0.25381013	0.93876813	0.13939667	0.14147397	0.98709692	0.18780344	0.009052207	1.0163904	-0.036029133	0.14154106	0.97472552	-0.22274641	0.24889664	0.92202759	-0.17343634	0.42861948	1.3160626	-0.035849411	0.38207501	1.4084679	0.097451599	0.36919888	1.4147953	-0.18258115	0.42154785	1.2205813	-0.054014915	0.4115015	1.2738558	-0.15821313	0.3369343	0.49029211	0.033187126	0.33175433	0.50863684	0.16493686	0.364095	0.65945044	0.10007153	0.27123172	0.099624115	0.068463829	0.21598499	0.085645569	0.1597251	0.27776419	0.30998325	0.17883244	0.39659641	0.051940273	0.10744289
13000	86.34	0.17186653	0.040376289	0.11543906	0.25639523	0.94147321	0.13953275	0.14375652	0.98905225	0.18773848	0.011558501	1.0178226	-0.036187252	0.1443154	0.97657147	-0.22274878	0.25188481	0.92461505	-0.17334184	0.42812759	1.320822	-0.035685699	0.3805181	1.4126227	0.097783897	0.36800003	1.4189436	-0.1825043	0.42206256	1.22522	-0.053679359	0.41141815	1.2783431	-0.15805043	0.33615436	0.4904762	0.033162674	0.33076086	0.50893646	0.16480836	0.36462161	0.65935217	0.10012875	0.27125232	0.099655228	0.068634804	0.21583934	0.085632004	0.15977927	0.27688586	0.31022614	0.17878743	0.39668146	0.051800018	0.10776308
13001	86.35	0.17188045	0.040392365	0.11547993	0.25898016	0.94409485	0.13968059	0.14601953	0.99094232	0.18767561	0.014065696	1.0191495	-0.036358639	0.14710025	0.97832062	-0.22274997	0.25485587	0.92710144	-0.17324693	0.42761063	1.3254709	-0.035515842	0.37893381	1.4166678	0.098125618	0.36678726	1.4229714	-0.1824183	0.42254208	1.2297559	-0.053343857	0.41133246	1.2827228	-0.15786613	0.33539661	0.49064612	0.033108395	0.32980008	0.50923401	0.16465117	0.36516278	0.65923645	0.10016035	0.27127512	0.099683479	0.068807877	0.21569562	0.085617668	0.15983958	0.27603128	0.31046295	0.17872644	0.39678018	0.051639462	0.10807776
13002	86.36	0.17189423	0.040406879	0.11553201	0.26156268	0.94663367	0.13983473	0.14826805	0.99276288	0.18761584	0.016575928	1.0203779	-0.036539738	0.14989575	0.97998041	-0.22274995	0.25782013	0.92949359	-0.17315437	0.42706705	1.3300083	-0.035340992	0.37732703	1.4206058	0.0984795	0.3655625	1.4268823	-0.18232271	0.42299576	1.2341875	-0.053008408	0.41124591	1.2869962	-0.15766512	0.33465787	0.49079984	0.033022636	0.32888025	0.50952863	0.16446306	0.36571964	0.65910651	0.10016046	0.27129837	0.099710144	0.06898082	0.21555402	0.085602303	0.15990692	0.27520724	0.31069177	0.17865175	0.39688715	0.051465218	0.10837897
13003	86.37	0.17190637	0.040418549	0.11559361	0.26413953	0.9490874	0.13999109	0.1505065	0.99450946	0.18755901	0.01909071	1.0215138	-0.036727249	0.1527025	0.98155774	-0.22274821	0.26078815	0.93179932	-0.17306566	0.4264968	1.3344337	-0.035161907	0.37570294	1.4244391	0.098847931	0.36432858	1.4306787	-0.18221771	0.42342975	1.2385127	-0.052673618	0.41115863	1.2911644	-0.15745186	0.33393631	0.49093536	0.032905613	0.32801135	0.50981891	0.16424283	0.36629434	0.6589657	0.10012148	0.27131967	0.099736153	0.069150826	0.21541501	0.085586372	0.15998047	0.27442111	0.31091177	0.17856563	0.39699274	0.051288761	0.10865889
